# Dominican one peso coin — generated by generate-peso-obj.mjs
v 0 0 0.04
v 0 0 -0.04
v 0.5 0 0.04
v 0.5 0 -0.04
v 0.433013 0.25 0.04
v 0.433013 0.25 -0.04
v 0.25 0.433013 0.04
v 0.25 0.433013 -0.04
v 0 0.5 0.04
v 0 0.5 -0.04
v -0.25 0.433013 0.04
v -0.25 0.433013 -0.04
v -0.433013 0.25 0.04
v -0.433013 0.25 -0.04
v -0.5 0 0.04
v -0.5 0 -0.04
v -0.433013 -0.25 0.04
v -0.433013 -0.25 -0.04
v -0.25 -0.433013 0.04
v -0.25 -0.433013 -0.04
v 0 -0.5 0.04
v 0 -0.5 -0.04
v 0.25 -0.433013 0.04
v 0.25 -0.433013 -0.04
v 0.433013 -0.25 0.04
v 0.433013 -0.25 -0.04
vt 0.25 0.5
vt 0.75 0.5
vt 0.116667 0.5
vt 0.48875 0.5
vt 0.51125 0.5
vt 0.456764 0.73875
vt 0.543236 0.73875
vt 0.369375 0.913527
vt 0.630625 0.913527
vt 0.25 0.9775
vt 0.75 0.9775
vt 0.130625 0.913527
vt 0.869375 0.913527
vt 0.043236 0.73875
vt 0.956764 0.73875
vt 0.01125 0.5
vt 0.98875 0.5
vt 0.043236 0.26125
vt 0.956764 0.26125
vt 0.130625 0.086473
vt 0.869375 0.086473
vt 0.25 0.0225
vt 0.75 0.0225
vt 0.369375 0.086473
vt 0.630625 0.086473
vt 0.456764 0.26125
vt 0.543236 0.26125
vn 0 0 1
vn 0 0 -1
vn 1 0 0
vn 0.866025 0.5 0
vn 0.5 0.866025 0
vn 0 1 0
vn -0.5 0.866025 0
vn -0.866025 0.5 0
vn -1 0 0
vn -0.866025 -0.5 0
vn -0.5 -0.866025 0
vn 0 -1 0
vn 0.5 -0.866025 0
vn 0.866025 -0.5 0
f 1/1/1 3/4/1 5/6/1
f 2/2/2 6/7/2 4/5/2
f 3/3/3 4/3/3 6/3/4
f 3/3/3 6/3/4 5/3/4
f 1/1/1 5/6/1 7/8/1
f 2/2/2 8/9/2 6/7/2
f 5/3/4 6/3/4 8/3/5
f 5/3/4 8/3/5 7/3/5
f 1/1/1 7/8/1 9/10/1
f 2/2/2 10/11/2 8/9/2
f 7/3/5 8/3/5 10/3/6
f 7/3/5 10/3/6 9/3/6
f 1/1/1 9/10/1 11/12/1
f 2/2/2 12/13/2 10/11/2
f 9/3/6 10/3/6 12/3/7
f 9/3/6 12/3/7 11/3/7
f 1/1/1 11/12/1 13/14/1
f 2/2/2 14/15/2 12/13/2
f 11/3/7 12/3/7 14/3/8
f 11/3/7 14/3/8 13/3/8
f 1/1/1 13/14/1 15/16/1
f 2/2/2 16/17/2 14/15/2
f 13/3/8 14/3/8 16/3/9
f 13/3/8 16/3/9 15/3/9
f 1/1/1 15/16/1 17/18/1
f 2/2/2 18/19/2 16/17/2
f 15/3/9 16/3/9 18/3/10
f 15/3/9 18/3/10 17/3/10
f 1/1/1 17/18/1 19/20/1
f 2/2/2 20/21/2 18/19/2
f 17/3/10 18/3/10 20/3/11
f 17/3/10 20/3/11 19/3/11
f 1/1/1 19/20/1 21/22/1
f 2/2/2 22/23/2 20/21/2
f 19/3/11 20/3/11 22/3/12
f 19/3/11 22/3/12 21/3/12
f 1/1/1 21/22/1 23/24/1
f 2/2/2 24/25/2 22/23/2
f 21/3/12 22/3/12 24/3/13
f 21/3/12 24/3/13 23/3/13
f 1/1/1 23/24/1 25/26/1
f 2/2/2 26/27/2 24/25/2
f 23/3/13 24/3/13 26/3/14
f 23/3/13 26/3/14 25/3/14
f 1/1/1 25/26/1 3/4/1
f 2/2/2 4/5/2 26/27/2
f 25/3/14 26/3/14 4/3/3
f 25/3/14 4/3/3 3/3/3
